<?xml version="1.0" encoding="iso-8859-1"?>
<!-- Uploaded to: SVG Repo, www.svgrepo.com, Generator: SVG Repo Mixer Tools -->
<svg fill="#000000" height="800px" width="800px" version="1.1" id="Capa_1" xmlns="http://www.w3.org/2000/svg" xmlns:xlink="http://www.w3.org/1999/xlink" 
	 viewBox="0 0 270 270" xml:space="preserve">
<path color-rendering="auto" image-rendering="auto" shape-rendering="auto" color-interpolation="sRGB" d="M139.982,0
	c-9.748,0-18.885,4.338-26.732,11.529c-7.847,7.191-14.603,17.249-20.234,29.451c-1.082,2.345-2.108,4.794-3.105,7.295
	c-2.661-0.386-5.291-0.72-7.859-0.955c-4.182-0.382-8.239-0.564-12.148-0.537c-8.601,0.059-16.494,1.134-23.473,3.334
	c-10.152,3.2-18.479,8.945-23.354,17.387s-5.685,18.526-3.381,28.918c2.304,10.392,7.637,21.268,15.389,32.246
	c1.488,2.107,3.093,4.219,4.758,6.33c-1.666,2.113-3.273,4.227-4.762,6.336c-7.751,10.978-13.082,21.855-15.387,32.246
	c-0.684,3.084-1.084,6.14-1.191,9.135c-5.968,3.474-10.02,9.93-10.02,17.285c0,10.987,9.014,20,20,20
	c3.873,0,7.49-1.138,10.564-3.07c2.323,1.152,4.79,2.139,7.379,2.955c10.152,3.2,22.238,4.021,35.621,2.797
	c2.57-0.235,5.201-0.569,7.863-0.955c0.997,2.5,2.024,4.947,3.105,7.291c5.632,12.202,12.387,22.26,20.234,29.451
	C121.097,265.66,130.234,270,139.982,270c9.748,0,18.885-4.34,26.732-11.531c7.847-7.191,14.603-17.249,20.234-29.451
	c1.081-2.343,2.107-4.789,3.104-7.287c2.666,0.387,5.303,0.722,7.877,0.957c0.22,0.02,0.434,0.03,0.652,0.047
	c1.958,6.014,7.639,10.416,14.268,10.416c7.081,0,13.076-5.026,14.609-11.672c2.1-0.442,4.133-0.97,6.092-1.588
	c10.152-3.2,18.478-8.945,23.352-17.387c4.874-8.442,5.687-18.524,3.383-28.916c-2.304-10.391-7.639-21.27-15.391-32.248
	c-1.49-2.11-3.098-4.225-4.766-6.34c1.667-2.114,3.274-4.228,4.764-6.338c7.751-10.978,13.086-21.857,15.391-32.248
	c2.304-10.392,1.491-20.476-3.383-28.918c-4.874-8.442-13.2-14.185-23.351-17.385c-6.979-2.2-14.874-3.277-23.475-3.336
	c-3.91-0.027-7.964,0.157-12.146,0.539c-2.573,0.235-5.208,0.57-7.873,0.957c-0.997-2.499-2.024-4.947-3.105-7.291
	c-5.632-12.202-12.387-22.26-20.234-29.451C158.867,4.338,149.73,0,139.982,0L139.982,0z M139.982,10
	c6.821,0,13.467,2.937,19.977,8.902c6.509,5.965,12.684,14.944,17.91,26.268c0.728,1.578,1.435,3.211,2.125,4.877
	c-9.214,1.907-18.837,4.644-28.695,8.189c-2.843-3.285-6.972-5.176-11.316-5.184c-4.349,0.004-8.482,1.894-11.328,5.182
	c-9.854-3.543-19.474-6.278-28.684-8.184c0.691-1.667,1.396-3.302,2.125-4.881c5.226-11.323,11.401-20.302,17.91-26.268
	C126.515,12.937,133.161,10,139.982,10z M207.845,56.791c8.69-0.113,16.38,0.867,22.695,2.857
	c8.421,2.655,14.289,6.941,17.699,12.848c3.41,5.907,4.189,13.132,2.277,21.752c-1.911,8.62-6.602,18.459-13.795,28.646
	c-1.003,1.42-2.066,2.848-3.164,4.279c-8.634-9.692-19.028-19.273-30.895-28.359c-1.936-14.823-5.039-28.618-9.117-40.943
	c1.789-0.235,3.557-0.441,5.289-0.6C201.94,56.988,204.949,56.829,207.845,56.791L207.845,56.791z M72.128,56.801
	c2.897,0.038,5.905,0.197,9.01,0.481c1.729,0.158,3.493,0.363,5.279,0.598c-4.077,12.324-7.179,26.117-9.115,40.938
	c-11.865,9.086-22.258,18.668-30.891,28.359c-1.097-1.43-2.158-2.856-3.16-4.275c-7.193-10.188-11.883-20.023-13.795-28.643
	c-1.911-8.62-1.131-15.845,2.279-21.752c3.41-5.907,9.277-10.195,17.697-12.85C55.749,57.665,63.439,56.687,72.128,56.801
	L72.128,56.801z M183.552,59.532c3.192,9.391,5.82,19.828,7.746,31.049c-5.983-4.103-12.251-8.078-18.811-11.865
	c-5.855-3.38-11.723-6.499-17.57-9.356c0.04-0.434,0.062-0.869,0.064-1.305c-0.003-0.161-0.009-0.322-0.018-0.482
	C164.873,64.025,174.486,61.331,183.552,59.532L183.552,59.532z M96.412,59.542c9.067,1.8,18.681,4.495,28.594,8.043
	c-0.01,0.158-0.018,0.316-0.023,0.475c0.004,0.434,0.027,0.868,0.068,1.301c-5.845,2.856-11.712,5.972-17.564,9.352
	c-6.562,3.789-12.832,7.764-18.816,11.869C90.595,79.364,93.221,68.93,96.412,59.542L96.412,59.542z M150.757,78.473
	c5.564,2.72,11.154,5.687,16.73,8.906c9.187,5.304,17.796,10.983,25.754,16.879c1.127,9.841,1.74,20.138,1.74,30.748
	s-0.613,20.907-1.74,30.748c-7.958,5.896-16.568,11.576-25.756,16.881c-9.191,5.307-18.416,9.926-27.504,13.871
	c-9.085-3.944-18.307-8.561-27.494-13.865c-9.191-5.307-17.803-10.988-25.764-16.887c-1.127-9.841-1.742-20.138-1.742-30.748
	c0-10.611,0.615-20.909,1.742-30.75c7.96-5.898,16.571-11.579,25.762-16.885c5.569-3.215,11.15-6.177,16.707-8.894
	c2.826,2.927,6.72,4.581,10.789,4.582C144.047,83.054,147.935,81.399,150.757,78.473L150.757,78.473z M75.853,112.778
	c-0.562,7.235-0.871,14.652-0.871,22.229c0,7.575,0.307,14.992,0.869,22.225c-8.751-7.277-16.475-14.769-23.01-22.227
	C59.376,127.547,67.101,120.054,75.853,112.778z M204.115,112.778c8.751,7.276,16.477,14.766,23.012,22.223
	c-6.535,7.458-14.26,14.952-23.012,22.229c0.562-7.234,0.867-14.651,0.867-22.227C204.982,127.427,204.677,120.011,204.115,112.778
	L204.115,112.778z M46.412,142.825c8.633,9.693,19.024,19.278,30.891,28.365c1.936,14.821,5.04,28.614,9.117,40.938
	c-1.787,0.235-3.553,0.439-5.283,0.598c-12.419,1.136-23.284,0.278-31.705-2.377c-1.123-0.354-2.192-0.742-3.223-1.154
	c1.443-2.759,2.273-5.882,2.273-9.191c0-10.907-8.885-19.866-19.764-19.994c0.167-1.38,0.412-2.799,0.736-4.26
	c1.911-8.62,6.602-18.459,13.795-28.646C44.252,145.682,45.314,144.256,46.412,142.825z M233.558,142.825
	c1.1,1.434,2.164,2.863,3.168,4.285c7.193,10.188,11.884,20.023,13.795,28.643c1.911,8.62,1.131,15.845-2.279,21.752
	s-9.278,10.195-17.699,12.85c-1.361,0.429-2.811,0.792-4.297,1.125c-2.476-4.914-7.565-8.328-13.396-8.328
	c-6.316,0-11.764,4.003-13.959,9.582c-0.016,0-0.032,0-0.049,0c-1.734-0.159-3.504-0.364-5.295-0.6
	c4.078-12.325,7.181-26.12,9.117-40.943c11.867-9.086,22.261-18.669,30.895-28.361L233.558,142.825z M191.298,179.424
	c-1.926,11.219-4.553,21.656-7.744,31.045c-9.727-1.931-20.079-4.875-30.758-8.816c6.548-3.131,13.126-6.574,19.689-10.363
	C179.046,187.502,185.315,183.528,191.298,179.424z M88.669,179.424c5.985,4.105,12.255,8.082,18.818,11.871
	c6.558,3.786,13.132,7.227,19.676,10.355c-10.677,3.94-21.027,6.884-30.752,8.815C93.221,201.077,90.595,190.641,88.669,179.424z
	 M28.482,189.999c5.582,0,10,4.418,10,10c0,5.582-4.418,10-10,10c-5.582,0-10-4.418-10-10
	C18.482,194.417,22.9,189.999,28.482,189.999z M139.978,207.375c13.805,5.735,27.301,9.945,40.014,12.576
	c-0.69,1.665-1.395,3.298-2.123,4.875c-5.226,11.323-11.401,20.304-17.91,26.27c-6.509,5.965-13.156,8.902-19.977,8.902
	c-6.82,0-13.467-2.937-19.977-8.902c-6.509-5.965-12.684-14.946-17.91-26.27c-0.729-1.578-1.432-3.213-2.123-4.879
	C112.681,217.318,126.177,213.108,139.978,207.375L139.978,207.375z M212.849,213.149c2.821,0,5,2.179,5,5c0,2.821-2.179,5-5,5
	c-2.821,0-5-2.179-5-5C207.849,215.328,210.029,213.149,212.849,213.149z"/>
</svg>